<svg xmlns="http://www.w3.org/2000/svg" xmlns:xlink="http://www.w3.org/1999/xlink" viewBox="0 0 214 214"><defs><style>.cls-1{fill:url(#radial-gradient);}.cls-2,.cls-5{fill:#1e31bc;}.cls-10,.cls-3{fill:#24751b;}.cls-4{fill:#1a237a;}.cls-5{font-size:17.99px;letter-spacing:-0.04em;}.cls-10,.cls-5{font-family:BalooBhaina-Regular, Baloo Bhaina;}.cls-6,.cls-8{letter-spacing:-0.04em;}.cls-7{letter-spacing:-0.06em;}.cls-8,.cls-9{fill:#0b1349;}.cls-9{letter-spacing:-0.03em;}.cls-10{font-size:9.57px;letter-spacing:0.41em;}.cls-11{letter-spacing:0.4em;}.cls-12{letter-spacing:0.37em;}.cls-13{letter-spacing:0.4em;}.cls-14{letter-spacing:0.41em;}.cls-15{letter-spacing:0.4em;}.cls-16{letter-spacing:0.41em;}.cls-17{fill:#0165ca;}</style><radialGradient id="radial-gradient" cx="107" cy="107" r="107" gradientUnits="userSpaceOnUse"><stop offset="0" stop-color="#fff"/><stop offset="1" stop-color="#b7b7b7"/></radialGradient></defs><g id="Layer_2" data-name="Layer 2"><g id="Layer_1-2" data-name="Layer 1"><rect class="cls-1" width="214" height="214"/><path class="cls-2" d="M40.61,115.24a9.39,9.39,0,0,1-.2-4.59,1.18,1.18,0,0,1,.48-.38c5.15-1.25,9.38-4.5,14.17-6.55a16.32,16.32,0,0,1,10.25-2.52c1.5.15,2.86.49,3.58,2A23.88,23.88,0,0,1,67.08,114l0,0a2.64,2.64,0,0,1-2.52-.24c-5.21-2.88-10.37-1.91-15.55,0-1.61.61-3.22,1.2-4.87,1.69-.94.28-.71.64-3.2.23"/><path class="cls-3" d="M55.12,104.36c-3.9,2-7.53,4.46-11.7,5.89a4.44,4.44,0,0,1-2.62.2c-1.91-.58-2-.75-2.27-1.93,0-1.25-.08-2.49-.07-3.74a6,6,0,0,1,7.06-6,16.9,16.9,0,0,1,6.55,3.09C53.78,101.85,54.89,102.57,55.12,104.36Z"/><path class="cls-4" d="M55.12,104.36a13.89,13.89,0,0,0-3-2.51c0-.86.61-1.27,1.27-1.73A33.37,33.37,0,0,1,63,95.75c2.12-.47,4.28-.78,6.19.6.57.4,1.23.62,1.25,1.45-.19,1.14.17,2.3-.1,3.44s-.42,2.08-1.86,1.94c-3.9-2.4-7.66-1.15-11.42.4Z"/><text class="cls-5" transform="translate(70.88 105.85)">A<tspan class="cls-6" x="10.47" y="0">U</tspan><tspan class="cls-7" x="21.76" y="0">T</tspan><tspan class="cls-6" x="30.65" y="0">O</tspan><tspan class="cls-8" x="42.64" y="0">DEPU</tspan><tspan class="cls-9" x="84.28" y="0">R</tspan><tspan class="cls-8" x="94.73" y="0">A</tspan></text><text class="cls-10" transform="translate(72.44 114.95)">C<tspan class="cls-11" x="9.43" y="0">A</tspan><tspan class="cls-12" x="19.26" y="0">L</tspan><tspan class="cls-13" x="27.71" y="0">CU</tspan><tspan class="cls-14" x="47.18" y="0">L</tspan><tspan class="cls-15" x="56.01" y="0">ADO</tspan><tspan class="cls-16" x="86.59" y="0">R</tspan><tspan class="cls-11" x="96.32" y="0">A</tspan></text><path class="cls-17" d="M68.1,139h0v0Z"/></g></g></svg>