<svg width="134" height="87" viewBox="0 0 134 87" fill="none" xmlns="http://www.w3.org/2000/svg">
<path d="M23.5281 15.1416C-2.0719 17.5416 -0.638578 47.3083 3.02809 61.6416C18.5281 73.6416 56.0281 46.6416 72.0281 39.6416C47.6281 18.0416 29.3614 14.1416 23.5281 15.1416Z" fill="#24751B" stroke="#171717"/>
<path d="M57 27.2078L70.5 39.7078C95.7 22.1078 118.333 29.7078 126.5 35.7078C136.5 25.7078 132.333 11.2078 129 5.20779C111 -8.39221 73.5 14.2078 57 27.2078Z" fill="#1A237A" stroke="#171717"/>
<path d="M11.5 85.5C8.70003 81.9 9.00003 70 9.50003 64.5C21.5 68.5 47.5 54.1667 59 46.5C91.8 22.1 119.333 28.6667 129 35C129.4 67.4 121.5 78.8333 117.5 80.5C110.333 75.1667 91.2 65.8 72 71C48 77.5 15 90 11.5 85.5Z" fill="#773525" stroke="#171717"/>
</svg>
