<svg width="397" height="87" viewBox="0 0 397 87" fill="none" xmlns="http://www.w3.org/2000/svg">
<path d="M23.5281 15.1416C-2.0719 17.5416 -0.638578 47.3083 3.02809 61.6416C18.5281 73.6416 56.0281 46.6416 72.0281 39.6416C47.6281 18.0416 29.3614 14.1416 23.5281 15.1416Z" fill="#24751B" stroke="#171717"/>
<path d="M57 27.2078L70.5 39.7078C95.7 22.1078 118.333 29.7078 126.5 35.7078C136.5 25.7078 132.333 11.2078 129 5.20779C111 -8.39221 73.5 14.2078 57 27.2078Z" fill="#1A237A" stroke="#171717"/>
<path d="M11.5 85.5C8.70003 81.9 9.00003 70 9.50003 64.5C21.5 68.5 47.5 54.1667 59 46.5C91.8 22.1 119.333 28.6667 129 35C129.4 67.4 121.5 78.8333 117.5 80.5C110.333 75.1667 91.2 65.8 72 71C48 77.5 15 90 11.5 85.5Z" fill="#773525" stroke="#171717"/>
<path d="M161.73 55.8567C160.428 56.9765 158.97 57.8358 157.355 58.4348C155.74 59.0337 154.067 59.3332 152.336 59.3332C151.007 59.3332 149.725 59.1574 148.488 58.8059C147.264 58.4673 146.112 57.9856 145.031 57.3606C143.963 56.7225 142.987 55.9608 142.101 55.0754C141.216 54.19 140.454 53.2134 139.816 52.1457C139.191 51.065 138.703 49.9126 138.351 48.6887C138.013 47.4517 137.843 46.1692 137.843 44.841C137.843 43.5129 138.013 42.2304 138.351 40.9934C138.703 39.7564 139.191 38.6041 139.816 37.5363C140.454 36.4556 141.216 35.4725 142.101 34.5871C142.987 33.7017 143.963 32.9465 145.031 32.3215C146.112 31.6835 147.264 31.1952 148.488 30.8567C149.725 30.5051 151.007 30.3293 152.336 30.3293C154.067 30.3293 155.74 30.6288 157.355 31.2278C158.97 31.8137 160.428 32.6731 161.73 33.8059L158.761 38.6887C157.941 37.8033 156.971 37.1262 155.851 36.6574C154.731 36.1757 153.559 35.9348 152.336 35.9348C151.099 35.9348 149.94 36.1692 148.859 36.6379C147.778 37.1067 146.834 37.7447 146.027 38.552C145.22 39.3462 144.582 40.2903 144.113 41.384C143.644 42.4647 143.41 43.6171 143.41 44.841C143.41 46.065 143.644 47.2173 144.113 48.2981C144.582 49.3658 145.22 50.3033 146.027 51.1106C146.834 51.9179 147.778 52.5559 148.859 53.0246C149.94 53.4934 151.099 53.7278 152.336 53.7278C153.559 53.7278 154.731 53.4934 155.851 53.0246C156.971 52.5429 157.941 51.8593 158.761 50.9738L161.73 55.8567ZM181.476 47.5363V41.9309C181.476 41.1626 181.326 40.44 181.027 39.7629C180.74 39.0728 180.343 38.4738 179.836 37.966C179.328 37.4582 178.729 37.0611 178.039 36.7746C177.362 36.4751 176.639 36.3254 175.871 36.3254C175.102 36.3254 174.373 36.4751 173.683 36.7746C173.006 37.0611 172.414 37.4582 171.906 37.966C171.398 38.4738 170.994 39.0728 170.695 39.7629C170.408 40.44 170.265 41.1626 170.265 41.9309V47.5363H181.476ZM187.082 58.7278H181.476V53.1223H170.265V58.7278H164.679V41.9309C164.679 40.3814 164.972 38.9296 165.558 37.5754C166.144 36.2082 166.938 35.0168 167.941 34.0012C168.957 32.9856 170.141 32.1848 171.496 31.5988C172.863 31.0129 174.321 30.7199 175.871 30.7199C177.42 30.7199 178.872 31.0129 180.226 31.5988C181.593 32.1848 182.785 32.9856 183.8 34.0012C184.816 35.0168 185.617 36.2082 186.203 37.5754C186.789 38.9296 187.082 40.3814 187.082 41.9309V58.7278ZM211.554 58.7278H191.945V30.7199H197.55V53.1223H211.554V58.7278ZM220.207 32.1262C220.207 32.621 220.109 33.0832 219.914 33.5129C219.731 33.9426 219.477 34.3202 219.152 34.6457C218.826 34.9582 218.442 35.2121 218 35.4074C217.57 35.5897 217.108 35.6809 216.613 35.6809C216.118 35.6809 215.649 35.5897 215.207 35.4074C214.777 35.2121 214.399 34.9582 214.074 34.6457C213.761 34.3202 213.507 33.9426 213.312 33.5129C213.13 33.0832 213.039 32.621 213.039 32.1262C213.039 31.6444 213.13 31.1887 213.312 30.759C213.507 30.3163 213.761 29.9387 214.074 29.6262C214.399 29.3007 214.777 29.0468 215.207 28.8645C215.649 28.6692 216.118 28.5715 216.613 28.5715C217.108 28.5715 217.57 28.6692 218 28.8645C218.442 29.0468 218.826 29.3007 219.152 29.6262C219.477 29.9387 219.731 30.3163 219.914 30.759C220.109 31.1887 220.207 31.6444 220.207 32.1262ZM219.289 58.7278H213.918V37.8098H219.289V58.7278ZM249.972 58.7278H244.66V45.4465C244.66 45.0819 244.588 44.7369 244.445 44.4113C244.315 44.0858 244.126 43.7994 243.878 43.552C243.631 43.3046 243.345 43.1158 243.019 42.9856C242.694 42.8423 242.349 42.7707 241.984 42.7707C241.619 42.7707 241.274 42.8423 240.949 42.9856C240.636 43.1158 240.356 43.3046 240.109 43.552C239.875 43.7994 239.686 44.0858 239.543 44.4113C239.412 44.7369 239.347 45.0819 239.347 45.4465V58.7278H234.015V45.4465C234.015 45.0819 233.944 44.7369 233.8 44.4113C233.67 44.0858 233.481 43.7994 233.234 43.552C232.987 43.3046 232.7 43.1158 232.375 42.9856C232.049 42.8423 231.704 42.7707 231.339 42.7707C230.975 42.7707 230.63 42.8423 230.304 42.9856C229.992 43.1158 229.712 43.3046 229.464 43.552C229.23 43.7994 229.041 44.0858 228.898 44.4113C228.768 44.7369 228.703 45.0819 228.703 45.4465V58.7278H223.371V37.8098H224.66L226.105 39.4113C226.847 38.7863 227.661 38.3046 228.546 37.966C229.445 37.6145 230.376 37.4387 231.339 37.4387C232.316 37.4387 233.266 37.621 234.191 37.9856C235.128 38.3501 235.949 38.9817 236.652 39.8801C236.977 39.4374 237.349 39.0598 237.765 38.7473C238.182 38.4348 238.618 38.1809 239.074 37.9856C239.543 37.7903 240.024 37.6535 240.519 37.5754C241.014 37.4843 241.502 37.4387 241.984 37.4387C243.091 37.4387 244.126 37.647 245.089 38.0637C246.066 38.4804 246.912 39.0533 247.628 39.7824C248.358 40.4986 248.931 41.3449 249.347 42.3215C249.764 43.2981 249.972 44.3397 249.972 45.4465V58.7278ZM259.25 66.6965H253.878V37.8098H255.168L257.296 40.3293C257.778 39.8736 258.306 39.4439 258.878 39.0403C259.451 38.6366 260.044 38.2916 260.656 38.0051C261.281 37.7056 261.925 37.4712 262.589 37.302C263.253 37.1327 263.924 37.0481 264.601 37.0481C266.072 37.0481 267.453 37.315 268.742 37.8488C270.044 38.3697 271.177 39.1119 272.14 40.0754C273.117 41.039 273.885 42.2043 274.445 43.5715C275.005 44.9257 275.285 46.4296 275.285 48.0832C275.285 49.802 275.005 51.3515 274.445 52.7317C273.885 54.0988 273.117 55.2642 272.14 56.2278C271.177 57.1783 270.044 57.9074 268.742 58.4153C267.453 58.9231 266.072 59.177 264.601 59.177C264.132 59.177 263.664 59.1249 263.195 59.0207C262.739 58.9166 262.283 58.7798 261.828 58.6106C261.385 58.4283 260.942 58.2265 260.5 58.0051C260.07 57.7837 259.653 57.5559 259.25 57.3215V66.6965ZM269.933 48.0832C269.933 47.1978 269.79 46.4035 269.503 45.7004C269.23 44.9973 268.852 44.4048 268.371 43.9231C267.889 43.4283 267.322 43.0507 266.671 42.7903C266.02 42.5298 265.33 42.3996 264.601 42.3996C263.872 42.3996 263.182 42.5298 262.531 42.7903C261.893 43.0507 261.333 43.4283 260.851 43.9231C260.369 44.4048 259.985 44.9973 259.699 45.7004C259.425 46.4035 259.289 47.1978 259.289 48.0832C259.289 48.9296 259.425 49.7043 259.699 50.4074C259.985 51.1106 260.369 51.7095 260.851 52.2043C261.333 52.6991 261.893 53.0832 262.531 53.3567C263.182 53.6301 263.872 53.7668 264.601 53.7668C265.33 53.7668 266.02 53.6301 266.671 53.3567C267.322 53.0832 267.889 52.6991 268.371 52.2043C268.852 51.7095 269.23 51.1106 269.503 50.4074C269.79 49.7043 269.933 48.9296 269.933 48.0832ZM298.019 58.7278H278.82V30.7199H298.019V36.3254H284.425V41.9309H293.625V47.5363H284.425V53.1223H298.019V58.7278ZM317.336 41.9309V47.2434H300.929V41.9309H317.336ZM327.941 58.7278H322.336V30.7199H327.941V41.9309H339.132V30.7199H344.738V58.7278H339.132V47.5363H327.941V58.7278ZM368.683 39.1184C368.683 40.2772 368.462 41.371 368.019 42.3996C367.576 43.4153 366.971 44.3072 366.203 45.0754C365.447 45.8306 364.562 46.4296 363.546 46.8723C362.531 47.315 361.444 47.5363 360.285 47.5363H357.472C357.082 47.5363 356.717 47.608 356.378 47.7512C356.04 47.8944 355.74 48.0962 355.48 48.3567C355.233 48.6041 355.037 48.897 354.894 49.2356C354.751 49.5741 354.679 49.9387 354.679 50.3293V53.1223H367.921V58.7278H349.074V50.3293C349.074 49.1705 349.295 48.0832 349.738 47.0676C350.181 46.039 350.78 45.147 351.535 44.3918C352.303 43.6236 353.195 43.0246 354.211 42.5949C355.226 42.1522 356.313 41.9309 357.472 41.9309H360.285C360.675 41.9309 361.04 41.8593 361.378 41.716C361.717 41.5728 362.01 41.3775 362.257 41.1301C362.518 40.8697 362.72 40.5702 362.863 40.2317C363.006 39.8801 363.078 39.509 363.078 39.1184C363.078 38.7278 363.006 38.3632 362.863 38.0246C362.72 37.6861 362.518 37.3931 362.257 37.1457C362.01 36.8853 361.717 36.6835 361.378 36.5403C361.04 36.397 360.675 36.3254 360.285 36.3254H350.285V30.7199H360.285C361.444 30.7199 362.531 30.9413 363.546 31.384C364.562 31.8267 365.447 32.4322 366.203 33.2004C366.971 33.9556 367.576 34.841 368.019 35.8567C368.462 36.8723 368.683 37.9595 368.683 39.1184ZM388.918 44.7238C388.918 41.6119 388.397 39.3007 387.355 37.7903C386.326 36.2798 384.888 35.5246 383.039 35.5246C381.203 35.5246 379.777 36.2733 378.761 37.7707C377.746 39.2681 377.238 41.5858 377.238 44.7238C377.238 47.8358 377.746 50.147 378.761 51.6574C379.777 53.1679 381.203 53.9231 383.039 53.9231C383.963 53.9231 384.79 53.7408 385.519 53.3762C386.248 52.9986 386.86 52.4322 387.355 51.677C387.863 50.9218 388.247 49.9712 388.507 48.8254C388.781 47.6666 388.918 46.2994 388.918 44.7238ZM394.25 44.7238C394.25 47.3801 393.957 49.6262 393.371 51.4621C392.785 53.2981 391.984 54.7824 390.968 55.9153C389.953 57.0481 388.761 57.8684 387.394 58.3762C386.04 58.871 384.588 59.1184 383.039 59.1184C381.489 59.1184 380.031 58.8645 378.664 58.3567C377.309 57.8358 376.125 57.009 375.109 55.8762C374.106 54.7304 373.312 53.246 372.726 51.4231C372.14 49.5871 371.847 47.3541 371.847 44.7238C371.847 42.0676 372.14 39.828 372.726 38.0051C373.312 36.1692 374.106 34.6848 375.109 33.552C376.125 32.4192 377.309 31.5988 378.664 31.091C380.031 30.5832 381.489 30.3293 383.039 30.3293C384.588 30.3293 386.04 30.5897 387.394 31.1106C388.761 31.6184 389.953 32.4452 390.968 33.591C391.984 34.7369 392.785 36.2212 393.371 38.0442C393.957 39.8671 394.25 42.0936 394.25 44.7238Z" fill="#171717"/>
</svg>
